<?xml version="1.0" encoding="UTF-8" standalone="no"?>
<!-- Created with Inkscape (http://www.inkscape.org/) -->

<svg
   xmlns:osb="http://www.openswatchbook.org/uri/2009/osb"
   xmlns:dc="http://purl.org/dc/elements/1.1/"
   xmlns:cc="http://creativecommons.org/ns#"
   xmlns:rdf="http://www.w3.org/1999/02/22-rdf-syntax-ns#"
   xmlns:svg="http://www.w3.org/2000/svg"
   xmlns="http://www.w3.org/2000/svg"
   xmlns:sodipodi="http://sodipodi.sourceforge.net/DTD/sodipodi-0.dtd"
   xmlns:inkscape="http://www.inkscape.org/namespaces/inkscape"
   width="210mm"
   height="297mm"
   viewBox="0 0 744.09448819 1052.3622047"
   id="svg4165"
   version="1.1"
   inkscape:version="0.91 r13725"
   sodipodi:docname="drawing.svg">
  <defs
     id="defs4167">
    <linearGradient
       id="linearGradient6197"
       osb:paint="solid">
      <stop
         style="stop-color:#ff5555;stop-opacity:1;"
         offset="0"
         id="stop6199" />
    </linearGradient>
  </defs>
  <sodipodi:namedview
     id="base"
     pagecolor="#ffffff"
     bordercolor="#666666"
     borderopacity="1.0"
     inkscape:pageopacity="0.0"
     inkscape:pageshadow="2"
     inkscape:zoom="1.979899"
     inkscape:cx="161.366"
     inkscape:cy="552.81228"
     inkscape:document-units="px"
     inkscape:current-layer="layer1"
     showgrid="false"
     inkscape:window-width="1600"
     inkscape:window-height="860"
     inkscape:window-x="0"
     inkscape:window-y="38"
     inkscape:window-maximized="0" />
  <metadata
     id="metadata4170">
    <rdf:RDF>
      <cc:Work
         rdf:about="">
        <dc:format>image/svg+xml</dc:format>
        <dc:type
           rdf:resource="http://purl.org/dc/dcmitype/StillImage" />
        <dc:title></dc:title>
      </cc:Work>
    </rdf:RDF>
  </metadata>
  <g
     inkscape:label="Layer 1"
     inkscape:groupmode="layer"
     id="layer1">
    <text
       xml:space="preserve"
       style="font-style:normal;font-variant:normal;font-weight:normal;font-stretch:normal;font-size:40px;line-height:125%;font-family:'Apple Garamond';-inkscape-font-specification:'Apple Garamond';letter-spacing:0px;word-spacing:0px;fill:#000000;fill-opacity:1;stroke:none;stroke-width:1px;stroke-linecap:butt;stroke-linejoin:miter;stroke-opacity:1"
       x="62.602501"
       y="488.67935"
       id="text4136"
       sodipodi:linespacing="125%"><tspan
         sodipodi:role="line"
         id="tspan4138"
         x="62.602501"
         y="488.67935"
         style="font-style:italic;font-variant:normal;font-weight:normal;font-stretch:normal;font-family:'Apple Garamond';-inkscape-font-specification:'Apple Garamond Italic'">42<tspan
   style="font-size:65%;baseline-shift:super"
   id="tspan4725">bis</tspan></tspan></text>
    <path
       style="font-style:italic;font-variant:normal;font-weight:normal;font-stretch:normal;font-size:medium;line-height:125%;font-family:'Apple Garamond';-inkscape-font-specification:'Apple Garamond Italic';letter-spacing:0px;word-spacing:0px;fill:#d35f5f;fill-opacity:1;stroke:#d35f5f;stroke-width:1;stroke-linecap:round;stroke-linejoin:round;stroke-opacity:1;stroke-miterlimit:4;stroke-dasharray:none"
       d="M 103.34766 534.45312 C 103.27832 534.45312 103.18383 534.48731 103.0625 534.55664 C 102.9585 534.60864 102.80981 534.67896 102.61914 534.76562 C 102.42847 534.83496 102.18724 534.91333 101.89258 535 C 101.61524 535.08667 101.26756 535.14697 100.85156 535.18164 C 100.48756 535.21631 100.17601 535.24243 99.916016 535.25977 C 99.673349 535.25977 99.552734 535.40651 99.552734 535.70117 C 99.552734 535.87451 99.621099 535.97901 99.759766 536.01367 C 99.898432 536.04834 100.04517 536.07446 100.20117 536.0918 C 100.35717 536.10913 100.50586 536.15137 100.64453 536.2207 C 100.7832 536.2727 100.85156 536.40333 100.85156 536.61133 C 100.85156 536.69799 100.84351 536.83668 100.82617 537.02734 C 100.80884 537.20068 100.76465 537.40772 100.69531 537.65039 L 98.251953 546.98438 C 98.113286 547.53904 98.000729 548.05153 97.914062 548.51953 C 97.827396 548.9702 97.783203 549.37819 97.783203 549.74219 C 97.783203 550.81685 98.034443 551.64895 98.537109 552.23828 C 99.057109 552.82761 99.760532 553.12109 100.64453 553.12109 C 101.42453 553.12109 102.21243 552.93016 103.00977 552.54883 C 103.82443 552.16749 104.59622 551.58664 105.32422 550.80664 C 106.13889 549.90531 106.77199 548.89229 107.22266 547.76562 C 107.67332 546.62162 107.89844 545.50411 107.89844 544.41211 C 107.89844 543.26811 107.66331 542.37376 107.19531 541.73242 C 106.74465 541.07376 106.16379 540.74609 105.45312 540.74609 C 104.72513 540.74609 103.96335 541.16214 103.16602 541.99414 C 102.38602 542.82614 101.5278 544.08234 100.5918 545.76367 L 103.5293 535.75391 C 103.66796 535.30324 103.73828 535.00781 103.73828 534.86914 C 103.73828 534.59181 103.60766 534.45313 103.34766 534.45312 z M 114.38281 536.16992 C 114.19215 536.16992 114.00927 536.23023 113.83594 536.35156 C 113.67994 536.4729 113.5332 536.62769 113.39453 536.81836 C 113.25586 537.00903 113.14331 537.22608 113.05664 537.46875 C 112.98731 537.71142 112.95313 537.9546 112.95312 538.19727 C 112.95312 538.61327 113.0315 538.94288 113.1875 539.18555 C 113.3435 539.41088 113.56861 539.52344 113.86328 539.52344 C 114.26195 539.52344 114.59962 539.30638 114.87695 538.87305 C 115.15429 538.42238 115.29297 537.89378 115.29297 537.28711 C 115.29297 536.95778 115.20654 536.68847 115.0332 536.48047 C 114.8772 536.27247 114.66015 536.16992 114.38281 536.16992 z M 113.23828 540.74609 C 112.82228 540.74609 112.40623 540.88478 111.99023 541.16211 C 111.59157 541.43944 111.14134 541.85549 110.63867 542.41016 C 110.20534 542.89549 109.88378 543.30153 109.67578 543.63086 C 109.46778 543.96019 109.36523 544.18531 109.36523 544.30664 C 109.36523 544.53197 109.44166 544.64453 109.59766 544.64453 C 109.71899 544.64453 109.86768 544.54198 110.04102 544.33398 C 110.21435 544.12598 110.39527 543.89086 110.58594 543.63086 C 110.7766 543.37086 110.96754 543.13769 111.1582 542.92969 C 111.3662 542.72169 111.54908 542.61719 111.70508 542.61719 C 111.91308 542.61719 112.01563 542.75587 112.01562 543.0332 C 112.01562 543.1372 111.96533 543.37038 111.86133 543.73438 L 110.22266 548.91016 C 110.03199 549.53416 109.89331 550.105 109.80664 550.625 C 109.71997 551.145 109.67578 551.57911 109.67578 551.92578 C 109.67578 552.72311 109.99734 553.12109 110.63867 553.12109 C 111.00267 553.12109 111.41066 552.99047 111.86133 552.73047 C 112.31199 552.47047 112.79641 552.06443 113.31641 551.50977 C 113.74974 551.02443 114.06129 550.6245 114.25195 550.3125 C 114.45995 549.98317 114.56445 549.75805 114.56445 549.63672 C 114.56445 549.55005 114.53833 549.48169 114.48633 549.42969 C 114.43433 549.36035 114.37402 549.32617 114.30469 549.32617 C 114.20069 549.32617 114.06201 549.42872 113.88867 549.63672 C 113.71534 549.84472 113.53246 550.07984 113.3418 550.33984 C 113.15113 550.58251 112.95214 550.80763 112.74414 551.01562 C 112.53614 551.22363 112.34521 551.32813 112.17188 551.32812 C 111.99854 551.32812 111.91211 551.23168 111.91211 551.04102 C 111.91211 550.91968 111.94629 550.68651 112.01562 550.33984 C 112.10229 549.97584 112.24097 549.50755 112.43164 548.93555 L 113.99219 544.09961 C 114.13085 543.64894 114.23535 543.24901 114.30469 542.90234 C 114.37402 542.55568 114.4082 542.28027 114.4082 542.07227 C 114.4082 541.18827 114.01828 540.74609 113.23828 540.74609 z M 120.97852 540.79688 C 120.47585 540.79688 119.98948 540.90943 119.52148 541.13477 C 119.05348 541.3601 118.63744 541.65553 118.27344 542.01953 C 117.90944 542.38353 117.61596 542.79152 117.39062 543.24219 C 117.16529 543.67552 117.05273 544.10768 117.05273 544.54102 C 117.05273 545.23435 117.35622 545.98001 117.96289 546.77734 L 119.39258 548.67578 C 119.65258 549.02245 119.86964 549.35206 120.04297 549.66406 C 120.2163 549.97606 120.30273 550.33986 120.30273 550.75586 C 120.30273 551.20653 120.19018 551.57032 119.96484 551.84766 C 119.75684 552.12499 119.5056 552.26367 119.21094 552.26367 C 118.89894 552.26367 118.59545 552.1411 118.30078 551.89844 C 118.02345 551.63844 117.72802 551.25853 117.41602 550.75586 C 117.17335 550.35719 116.97436 550.01952 116.81836 549.74219 C 116.66236 549.44752 116.45336 549.29883 116.19336 549.29883 C 115.72536 549.29883 115.49219 549.93999 115.49219 551.22266 C 115.49219 551.77732 115.75148 552.23756 116.27148 552.60156 C 116.80882 552.94823 117.4761 553.12109 118.27344 553.12109 C 118.79344 553.12109 119.29592 553.01659 119.78125 552.80859 C 120.28392 552.61793 120.72609 552.35863 121.10742 552.0293 C 121.48876 551.69996 121.79224 551.3181 122.01758 550.88477 C 122.26024 550.4341 122.38281 549.95774 122.38281 549.45508 C 122.38281 548.90041 122.26024 548.40599 122.01758 547.97266 C 121.77491 547.53932 121.48143 547.08909 121.13477 546.62109 L 119.91211 545.00977 C 119.56544 544.5591 119.30615 544.16918 119.13281 543.83984 C 118.95948 543.49318 118.87109 543.19774 118.87109 542.95508 C 118.87109 542.64308 118.97559 542.39184 119.18359 542.20117 C 119.39159 541.99317 119.65284 541.88867 119.96484 541.88867 C 120.25951 541.88867 120.53687 542.00123 120.79688 542.22656 C 121.05687 542.43456 121.2981 542.66969 121.52344 542.92969 C 121.7661 543.18969 122.00123 543.43287 122.22656 543.6582 C 122.4519 543.8662 122.67701 543.96875 122.90234 543.96875 C 123.40501 543.96875 123.65625 543.46627 123.65625 542.46094 C 123.65625 541.9236 123.39695 541.51757 122.87695 541.24023 C 122.35695 540.94557 121.72385 540.79688 120.97852 540.79688 z M 78.722656 541.63867 C 78.429323 541.63867 78.229714 541.67977 78.123047 541.75977 C 78.01638 541.83977 77.895052 541.95914 77.761719 542.11914 L 62.962891 558.71875 C 62.802891 558.90542 62.681562 559.09263 62.601562 559.2793 C 62.521562 559.46596 62.482422 559.70667 62.482422 560 C 62.482422 560.53333 62.8425 560.79883 63.5625 560.79883 L 71.322266 560.79883 C 71.722266 560.79883 71.921875 560.86667 71.921875 561 C 71.921875 561.05333 71.882734 561.25294 71.802734 561.59961 L 70.962891 564.83984 C 70.776224 565.53318 70.58901 566.09286 70.402344 566.51953 C 70.215677 566.9462 69.882344 567.1993 69.402344 567.2793 C 69.02901 567.3593 68.695677 567.41279 68.402344 567.43945 C 68.135677 567.43945 67.909323 567.45185 67.722656 567.47852 C 67.53599 567.50518 67.38987 567.55867 67.283203 567.63867 C 67.176536 567.71867 67.123047 567.86674 67.123047 568.08008 C 67.123047 568.50674 67.335052 568.71875 67.761719 568.71875 C 67.895052 568.71875 68.30862 568.67961 69.001953 568.59961 C 69.721953 568.51961 70.748698 568.47852 72.082031 568.47852 C 73.255365 568.47852 74.148385 568.51961 74.761719 568.59961 C 75.375052 568.67961 75.749479 568.71875 75.882812 568.71875 C 76.442812 568.71875 76.722656 568.54589 76.722656 568.19922 C 76.722656 567.93255 76.588932 567.75969 76.322266 567.67969 C 76.082266 567.59969 75.802422 567.53185 75.482422 567.47852 C 75.189089 567.39852 74.909245 567.29349 74.642578 567.16016 C 74.402578 567.00016 74.283203 566.70596 74.283203 566.2793 C 74.283203 566.01263 74.322344 565.73279 74.402344 565.43945 L 75.363281 561.55859 C 75.416615 561.29193 75.470104 561.10667 75.523438 561 C 75.576771 560.86667 75.762031 560.79883 76.082031 560.79883 L 77.841797 560.79883 C 78.05513 560.79883 78.176458 560.77208 78.203125 560.71875 L 78.322266 560.35938 L 78.482422 559.79883 L 78.482422 559.75977 C 78.509089 559.7331 78.523437 559.69201 78.523438 559.63867 C 78.523438 559.42534 78.402109 559.31836 78.162109 559.31836 L 76.601562 559.31836 C 76.201563 559.31836 76.001953 559.24008 76.001953 559.08008 C 76.001953 559.05341 76.043047 558.87859 76.123047 558.55859 L 78.322266 550 C 78.375599 549.86667 78.402344 549.75969 78.402344 549.67969 L 78.402344 549.47852 C 78.402344 549.39852 78.375599 549.32023 78.322266 549.24023 C 78.268932 549.16023 78.188698 549.11914 78.082031 549.11914 L 77.882812 549.11914 C 77.829479 549.11914 77.749245 549.14589 77.642578 549.19922 L 75.363281 549.91992 C 75.176615 549.97326 74.989401 550.09263 74.802734 550.2793 C 74.642734 550.46596 74.535755 550.67992 74.482422 550.91992 L 72.642578 558.2793 C 72.589245 558.5193 72.535755 558.71891 72.482422 558.87891 C 72.455755 559.01224 72.416615 559.11922 72.363281 559.19922 C 72.309948 559.25255 72.215365 559.29169 72.082031 559.31836 L 71.601562 559.31836 L 64.001953 559.31836 C 66.42862 556.43836 68.628229 553.95891 70.601562 551.87891 C 72.601562 549.77224 74.294974 548.02534 75.681641 546.63867 C 77.068307 545.22534 78.136146 544.1451 78.882812 543.39844 C 79.656146 542.65177 80.042969 542.17232 80.042969 541.95898 C 80.042969 541.74565 79.816615 541.63867 79.363281 541.63867 L 78.722656 541.63867 z M 104.64844 542.5918 C 104.9431 542.5918 105.17628 542.73048 105.34961 543.00781 C 105.54028 543.26781 105.63672 543.62355 105.63672 544.07422 C 105.63672 544.73289 105.47997 545.60722 105.16797 546.69922 C 104.8733 547.77389 104.39695 548.8914 103.73828 550.05273 C 103.28761 550.85007 102.81126 551.44093 102.30859 551.82227 C 101.80593 552.2036 101.31956 552.39258 100.85156 552.39258 C 99.95023 552.39258 99.5 551.82173 99.5 550.67773 C 99.5 550.12307 99.664807 549.41159 99.994141 548.54492 C 100.34081 547.67826 100.86941 546.68135 101.58008 545.55469 C 102.22141 544.56669 102.76808 543.83104 103.21875 543.3457 C 103.68675 542.84304 104.1631 542.5918 104.64844 542.5918 z M 90.386719 542.79883 C 88.013385 542.79883 86.013385 543.78643 84.386719 545.75977 C 83.826719 546.4531 83.425547 547.09302 83.185547 547.67969 C 82.972214 548.26635 82.867188 548.63883 82.867188 548.79883 C 82.867188 549.14549 82.986563 549.31836 83.226562 549.31836 C 83.466563 549.31836 83.653776 549.1331 83.787109 548.75977 C 83.920443 548.35977 84.227031 547.81247 84.707031 547.11914 C 85.987031 545.25247 87.452135 544.31836 89.105469 544.31836 C 90.092135 544.31836 90.906875 544.74628 91.546875 545.59961 C 92.186875 546.42628 92.505859 547.56 92.505859 549 C 92.505859 550.2 92.267109 551.30503 91.787109 552.31836 C 91.333776 553.33169 90.693854 554.34604 89.867188 555.35938 C 89.067188 556.34604 88.091979 557.37279 86.945312 558.43945 C 85.825313 559.50612 84.598958 560.70573 83.265625 562.03906 C 79.985625 565.31906 78.345703 567.33341 78.345703 568.08008 C 78.345703 568.48008 78.598802 568.67969 79.105469 568.67969 C 79.238802 568.67969 79.720208 568.65294 80.546875 568.59961 C 81.400208 568.54628 82.706797 568.51953 84.466797 568.51953 C 86.546797 568.51953 88.17237 568.55867 89.345703 568.63867 C 90.519036 568.71867 91.239193 568.75977 91.505859 568.75977 C 91.825859 568.75977 92.039818 568.70628 92.146484 568.59961 C 92.253151 568.49294 92.372526 568.2131 92.505859 567.75977 L 93.626953 563.75977 C 93.760286 563.30643 93.826172 563.01224 93.826172 562.87891 C 93.826172 562.55891 93.680052 562.39844 93.386719 562.39844 C 93.173385 562.39844 93.000521 562.58565 92.867188 562.95898 C 92.760521 563.30565 92.558958 563.62659 92.265625 563.91992 C 91.972292 564.23992 91.626562 564.43953 91.226562 564.51953 C 90.826562 564.57286 90.373854 564.59961 89.867188 564.59961 L 82.185547 564.59961 C 82.87888 563.79961 83.613385 563.05271 84.386719 562.35938 C 85.186719 561.66604 85.999505 561.01177 86.826172 560.39844 L 89.386719 558.55859 C 90.266719 557.94526 91.132995 557.31969 91.986328 556.67969 C 93.452995 555.53302 94.545625 554.36016 95.265625 553.16016 C 96.012292 551.96016 96.386719 550.60008 96.386719 549.08008 C 96.386719 547.24008 95.839427 545.73193 94.746094 544.55859 C 93.679427 543.38526 92.226719 542.79883 90.386719 542.79883 z "
       id="path4735" />
    <path
       transform="translate(24.817993,-35.493956)"
       sodipodi:type="inkscape:offset"
       inkscape:radius="0.23683989"
       inkscape:original="M 244.56445 566.63672 C 244.49515 566.63672 244.40063 566.67091 244.2793 566.74023 C 244.1753 566.79223 244.02661 566.86256 243.83594 566.94922 C 243.64527 567.01852 243.40404 567.09692 243.10938 567.18359 C 242.83203 567.27029 242.48436 567.33056 242.06836 567.36523 C 241.70436 567.39993 241.3928 567.42606 241.13281 567.44336 C 240.89014 567.44336 240.76953 567.59011 240.76953 567.88477 C 240.76953 568.05811 240.83793 568.16261 240.97656 568.19727 C 241.11523 568.23197 241.26197 568.25809 241.41797 568.27539 C 241.57397 568.29269 241.72266 568.335 241.86133 568.4043 C 242 568.4563 242.06836 568.58692 242.06836 568.79492 C 242.06836 568.88162 242.06037 569.02028 242.04297 569.21094 C 242.02567 569.38428 241.98147 569.59131 241.91211 569.83398 L 239.46875 579.16797 C 239.33008 579.72263 239.21752 580.23512 239.13086 580.70312 C 239.04416 581.15379 239 581.56178 239 581.92578 C 239 583.00044 239.25125 583.83254 239.75391 584.42188 C 240.27391 585.01121 240.97734 585.30469 241.86133 585.30469 C 242.64133 585.30469 243.42922 585.11375 244.22656 584.73242 C 245.04122 584.35108 245.81302 583.77023 246.54102 582.99023 C 247.35569 582.0889 247.98878 581.07589 248.43945 579.94922 C 248.89011 578.80522 249.11523 577.6877 249.11523 576.5957 C 249.11523 575.4517 248.88011 574.55736 248.41211 573.91602 C 247.96145 573.25736 247.38059 572.92969 246.66992 572.92969 C 245.94193 572.92969 245.18014 573.34573 244.38281 574.17773 C 243.60281 575.00973 242.74459 576.26594 241.80859 577.94727 L 244.74609 567.9375 C 244.88475 567.48683 244.95508 567.1914 244.95508 567.05273 C 244.95508 566.7754 244.82445 566.63673 244.56445 566.63672 z M 255.59961 568.35352 C 255.40895 568.35352 255.22606 568.41382 255.05273 568.53516 C 254.89673 568.6565 254.75 568.81128 254.61133 569.00195 C 254.47266 569.19262 254.36011 569.40967 254.27344 569.65234 C 254.20414 569.89501 254.16993 570.13819 254.16992 570.38086 C 254.16992 570.79686 254.24832 571.12647 254.4043 571.36914 C 254.5603 571.59447 254.78541 571.70703 255.08008 571.70703 C 255.47875 571.70703 255.81642 571.48997 256.09375 571.05664 C 256.37109 570.60597 256.50977 570.07737 256.50977 569.4707 C 256.50977 569.14137 256.42337 568.87206 256.25 568.66406 C 256.094 568.45606 255.87695 568.35352 255.59961 568.35352 z M 254.45508 572.92969 C 254.03908 572.92969 253.62303 573.06837 253.20703 573.3457 C 252.80837 573.62303 252.35814 574.03908 251.85547 574.59375 C 251.42214 575.07908 251.10058 575.48512 250.89258 575.81445 C 250.68458 576.14378 250.58203 576.3689 250.58203 576.49023 C 250.58203 576.71556 250.65842 576.82812 250.81445 576.82812 C 250.93578 576.82812 251.08447 576.72558 251.25781 576.51758 C 251.43114 576.30958 251.61206 576.07445 251.80273 575.81445 C 251.99339 575.55445 252.18434 575.32128 252.375 575.11328 C 252.583 574.90528 252.76588 574.80078 252.92188 574.80078 C 253.12987 574.80078 253.23243 574.93947 253.23242 575.2168 C 253.23242 575.3208 253.18212 575.55397 253.07812 575.91797 L 251.43945 581.09375 C 251.24878 581.71775 251.11011 582.28859 251.02344 582.80859 C 250.93674 583.32859 250.89258 583.7627 250.89258 584.10938 C 250.89258 584.9067 251.21414 585.30469 251.85547 585.30469 C 252.21947 585.30469 252.62745 585.17406 253.07812 584.91406 C 253.52878 584.65406 254.0132 584.24802 254.5332 583.69336 C 254.96653 583.20802 255.27809 582.80809 255.46875 582.49609 C 255.67675 582.16676 255.78125 581.94164 255.78125 581.82031 C 255.78125 581.73361 255.75513 581.66528 255.70312 581.61328 C 255.65113 581.54398 255.59081 581.50977 255.52148 581.50977 C 255.41748 581.50977 255.27881 581.61231 255.10547 581.82031 C 254.93214 582.02831 254.74925 582.26344 254.55859 582.52344 C 254.36792 582.76611 254.16894 582.99123 253.96094 583.19922 C 253.75294 583.40723 253.562 583.51173 253.38867 583.51172 C 253.21533 583.51172 253.12891 583.41531 253.12891 583.22461 C 253.12891 583.10327 253.16311 582.87011 253.23242 582.52344 C 253.31912 582.15944 253.45777 581.69114 253.64844 581.11914 L 255.20898 576.2832 C 255.34764 575.83253 255.45214 575.43261 255.52148 575.08594 C 255.59078 574.73928 255.625 574.46386 255.625 574.25586 C 255.625 573.37186 255.23508 572.92969 254.45508 572.92969 z M 262.19531 572.98047 C 261.69264 572.98047 261.20628 573.09302 260.73828 573.31836 C 260.27028 573.54369 259.85423 573.83913 259.49023 574.20312 C 259.12623 574.56713 258.83276 574.97511 258.60742 575.42578 C 258.38209 575.85911 258.26953 576.29127 258.26953 576.72461 C 258.26953 577.41794 258.57302 578.16361 259.17969 578.96094 L 260.60938 580.85938 C 260.86937 581.20605 261.08644 581.53566 261.25977 581.84766 C 261.4331 582.15966 261.51953 582.52345 261.51953 582.93945 C 261.51953 583.39012 261.40698 583.75391 261.18164 584.03125 C 260.97364 584.30858 260.72239 584.44727 260.42773 584.44727 C 260.11573 584.44727 259.81225 584.32469 259.51758 584.08203 C 259.24025 583.82203 258.94481 583.44212 258.63281 582.93945 C 258.39014 582.54078 258.19116 582.20311 258.03516 581.92578 C 257.87916 581.63111 257.67016 581.48242 257.41016 581.48242 C 256.94216 581.48242 256.70898 582.12358 256.70898 583.40625 C 256.70898 583.96091 256.96828 584.42116 257.48828 584.78516 C 258.02562 585.13183 258.69289 585.30469 259.49023 585.30469 C 260.01023 585.30469 260.51272 585.20019 260.99805 584.99219 C 261.50072 584.80153 261.94289 584.54222 262.32422 584.21289 C 262.70556 583.88355 263.00904 583.50169 263.23438 583.06836 C 263.47704 582.61769 263.59961 582.14133 263.59961 581.63867 C 263.59961 581.084 263.47704 580.58958 263.23438 580.15625 C 262.99171 579.72291 262.69822 579.27269 262.35156 578.80469 L 261.12891 577.19336 C 260.78224 576.74269 260.52295 576.35278 260.34961 576.02344 C 260.17628 575.67678 260.08789 575.38133 260.08789 575.13867 C 260.08789 574.82667 260.19239 574.57544 260.40039 574.38477 C 260.60839 574.17677 260.86964 574.07227 261.18164 574.07227 C 261.47631 574.07227 261.75366 574.18483 262.01367 574.41016 C 262.27366 574.61816 262.51489 574.85328 262.74023 575.11328 C 262.98289 575.37328 263.21803 575.61647 263.44336 575.8418 C 263.6687 576.0498 263.89381 576.15234 264.11914 576.15234 C 264.62181 576.15234 264.87305 575.64986 264.87305 574.64453 C 264.87305 574.10719 264.61375 573.70117 264.09375 573.42383 C 263.57375 573.12917 262.94064 572.98047 262.19531 572.98047 z M 219.93945 573.82227 C 219.64612 573.82227 219.44651 573.86336 219.33984 573.94336 C 219.23317 574.02336 219.11186 574.14273 218.97852 574.30273 L 204.17969 590.90234 C 204.01968 591.08901 203.89836 591.27622 203.81836 591.46289 C 203.73836 591.64955 203.69922 591.89026 203.69922 592.18359 C 203.69922 592.71692 204.0593 592.98242 204.7793 592.98242 L 212.53906 592.98242 C 212.93906 592.98242 213.13867 593.05022 213.13867 593.18359 C 213.13867 593.23689 213.09957 593.43653 213.01953 593.7832 L 212.17969 597.02344 C 211.99303 597.71678 211.8058 598.27645 211.61914 598.70312 C 211.43247 599.12979 211.09914 599.38289 210.61914 599.46289 C 210.2458 599.54289 209.91247 599.59639 209.61914 599.62305 C 209.35247 599.62305 209.12612 599.63541 208.93945 599.66211 C 208.75278 599.68881 208.60666 599.74232 208.5 599.82227 C 208.39333 599.90227 208.33984 600.05033 208.33984 600.26367 C 208.33984 600.69033 208.55186 600.90234 208.97852 600.90234 C 209.11186 600.90234 209.52541 600.86324 210.21875 600.7832 C 210.93875 600.7032 211.9655 600.66211 213.29883 600.66211 C 214.47217 600.66211 215.36519 600.70321 215.97852 600.7832 C 216.59186 600.8632 216.96627 600.90234 217.09961 600.90234 C 217.65961 600.90234 217.93945 600.72948 217.93945 600.38281 C 217.93945 600.11614 217.80573 599.94328 217.53906 599.86328 C 217.29906 599.78328 217.01922 599.71544 216.69922 599.66211 C 216.40588 599.58211 216.12605 599.47708 215.85938 599.34375 C 215.61937 599.18375 215.5 598.88955 215.5 598.46289 C 215.5 598.19622 215.5391 597.91639 215.61914 597.62305 L 216.58008 593.74219 C 216.63338 593.47553 216.6869 593.29026 216.74023 593.18359 C 216.79353 593.05026 216.97883 592.98242 217.29883 592.98242 L 219.05859 592.98242 C 219.27192 592.98242 219.39325 592.95574 219.41992 592.90234 L 219.53906 592.54297 L 219.69922 591.98242 L 219.69922 591.94336 C 219.72592 591.91666 219.74023 591.87557 219.74023 591.82227 C 219.74023 591.60894 219.61891 591.50195 219.37891 591.50195 L 217.81836 591.50195 C 217.41836 591.50195 217.21875 591.42365 217.21875 591.26367 C 217.21875 591.23697 217.25985 591.06219 217.33984 590.74219 L 219.53906 582.18359 C 219.59236 582.05026 219.61914 581.94328 219.61914 581.86328 L 219.61914 581.66211 C 219.61914 581.58211 219.59246 581.50383 219.53906 581.42383 C 219.48576 581.34383 219.4055 581.30273 219.29883 581.30273 L 219.09961 581.30273 C 219.04631 581.30273 218.96604 581.32941 218.85938 581.38281 L 216.58008 582.10352 C 216.39342 582.15682 216.20619 582.27622 216.01953 582.46289 C 215.85953 582.64955 215.75255 582.86352 215.69922 583.10352 L 213.85938 590.46289 C 213.80607 590.70289 213.75255 590.9025 213.69922 591.0625 C 213.67252 591.19583 213.63343 591.30281 213.58008 591.38281 C 213.52678 591.43611 213.43217 591.47531 213.29883 591.50195 L 212.81836 591.50195 L 205.21875 591.50195 C 207.64541 588.62195 209.84502 586.1425 211.81836 584.0625 C 213.81836 581.95583 215.51177 580.20894 216.89844 578.82227 C 218.2851 577.40894 219.35294 576.32869 220.09961 575.58203 C 220.87294 574.83536 221.25977 574.35592 221.25977 574.14258 C 221.25977 573.92925 221.03342 573.82227 220.58008 573.82227 L 219.93945 573.82227 z M 245.86523 574.77539 C 246.15989 574.77539 246.39308 574.91408 246.56641 575.19141 C 246.75708 575.45141 246.85352 575.80714 246.85352 576.25781 C 246.85352 576.91648 246.69677 577.79081 246.38477 578.88281 C 246.0901 579.95748 245.61375 581.075 244.95508 582.23633 C 244.50441 583.03367 244.02806 583.62452 243.52539 584.00586 C 243.02273 584.38719 242.53636 584.57617 242.06836 584.57617 C 241.16703 584.57617 240.7168 584.00533 240.7168 582.86133 C 240.7168 582.30667 240.88161 581.59519 241.21094 580.72852 C 241.55761 579.86186 242.08621 578.86494 242.79688 577.73828 C 243.43821 576.75028 243.98488 576.01464 244.43555 575.5293 C 244.90355 575.02664 245.37989 574.77539 245.86523 574.77539 z M 231.60352 574.98242 C 229.23019 574.98242 227.23019 575.97002 225.60352 577.94336 C 225.04352 578.63669 224.64234 579.27661 224.40234 579.86328 C 224.18901 580.44994 224.08398 580.82242 224.08398 580.98242 C 224.08398 581.32908 224.20336 581.50195 224.44336 581.50195 C 224.68336 581.50195 224.87058 581.31669 225.00391 580.94336 C 225.13725 580.54336 225.44384 579.99606 225.92383 579.30273 C 227.20383 577.43606 228.66894 576.50195 230.32227 576.50195 C 231.30894 576.50195 232.12367 576.92987 232.76367 577.7832 C 233.40367 578.60987 233.72266 579.74359 233.72266 581.18359 C 233.72266 582.38359 233.48391 583.48862 233.00391 584.50195 C 232.55058 585.51528 231.91065 586.52963 231.08398 587.54297 C 230.28398 588.52963 229.30877 589.55639 228.16211 590.62305 C 227.04211 591.68972 225.81575 592.88933 224.48242 594.22266 C 221.20242 597.50266 219.5625 599.517 219.5625 600.26367 C 219.5625 600.66367 219.81561 600.86328 220.32227 600.86328 C 220.45561 600.86328 220.937 600.8365 221.76367 600.7832 C 222.617 600.7299 223.92359 600.70312 225.68359 600.70312 C 227.76359 600.70312 229.38916 600.74223 230.5625 600.82227 C 231.73583 600.90227 232.456 600.94336 232.72266 600.94336 C 233.04266 600.94336 233.25661 600.88986 233.36328 600.7832 C 233.46994 600.67653 233.58933 600.39669 233.72266 599.94336 L 234.84375 595.94336 C 234.97708 595.49002 235.04297 595.19583 235.04297 595.0625 C 235.04297 594.7425 234.89686 594.58203 234.60352 594.58203 C 234.39019 594.58203 234.21731 594.76925 234.08398 595.14258 C 233.97731 595.48925 233.77575 595.81019 233.48242 596.10352 C 233.18909 596.42352 232.84336 596.62312 232.44336 596.70312 C 232.04336 596.75643 231.59065 596.7832 231.08398 596.7832 L 223.40234 596.7832 C 224.09567 595.9832 224.83019 595.2363 225.60352 594.54297 C 226.40352 593.84963 227.2163 593.19536 228.04297 592.58203 L 230.60352 590.74219 C 231.48352 590.12886 232.34979 589.50328 233.20312 588.86328 C 234.66979 587.71661 235.76242 586.54375 236.48242 585.34375 C 237.22909 584.14375 237.60352 582.78367 237.60352 581.26367 C 237.60352 579.42367 237.05622 577.91553 235.96289 576.74219 C 234.89622 575.56886 233.44352 574.98242 231.60352 574.98242 z "
       style="font-style:italic;font-variant:normal;font-weight:normal;font-stretch:normal;font-size:medium;line-height:125%;font-family:'Apple Garamond';-inkscape-font-specification:'Apple Garamond Italic';letter-spacing:0px;word-spacing:0px;fill:#d35f5f;fill-opacity:1;stroke:none;stroke-width:1;stroke-linecap:round;stroke-linejoin:round;stroke-miterlimit:4;stroke-dasharray:none;stroke-opacity:1"
       id="path6819"
       d="m 244.56445,566.40039 c -0.1472,0 -0.26413,0.0558 -0.40234,0.13477 -0.0963,0.0479 -0.23463,0.11342 -0.41016,0.19336 -0.18383,0.0667 -0.41952,0.14337 -0.70898,0.22851 a 0.23686357,0.23686357 0 0 0 -0.004,0 c -0.25338,0.0792 -0.58599,0.13819 -0.99023,0.17188 a 0.23686357,0.23686357 0 0 0 -0.004,0 c -0.36247,0.0345 -0.671,0.061 -0.92773,0.0781 l 0.0156,0 c -0.16907,0 -0.34525,0.0618 -0.45508,0.19531 -0.10982,0.1335 -0.14453,0.30278 -0.14453,0.48243 0,0.11782 0.022,0.23512 0.0899,0.33789 0.0679,0.10277 0.18211,0.17638 0.29687,0.20507 0.14969,0.0375 0.30687,0.0656 0.47266,0.084 0.13034,0.0145 0.25069,0.0473 0.36328,0.10351 a 0.23686357,0.23686357 0 0 0 0.0215,0.0117 c 0.0203,0.008 0.0193,0.007 0.0293,0.0254 0.01,0.0189 0.0254,0.0645 0.0254,0.14258 0,0.0721 -0.008,0.20769 -0.0254,0.39453 -0.0153,0.15201 -0.0564,0.34682 -0.12305,0.58008 a 0.23686357,0.23686357 0 0 0 0,0.004 l -2.44336,9.33398 a 0.23686357,0.23686357 0 0 0 -0.002,0.004 c -0.13968,0.5587 -0.25213,1.07516 -0.33984,1.54883 -0.0886,0.46123 -0.13477,0.88305 -0.13477,1.26562 0,1.11158 0.26175,2.00695 0.81055,2.65039 a 0.23686357,0.23686357 0 0 0 0.002,0.002 c 0.5643,0.63954 1.34875,0.9629 2.28516,0.9629 0.81787,0 1.64126,-0.20024 2.46484,-0.59375 l 0.002,-0.002 c 0.8454,-0.39615 1.64246,-0.99554 2.38672,-1.79297 a 0.23686357,0.23686357 0 0 0 0.002,-0.004 c 0.83293,-0.92154 1.48246,-1.9591 1.94336,-3.11133 a 0.23686357,0.23686357 0 0 0 0,-0.002 c 0.46008,-1.16792 0.6914,-2.31491 0.6914,-3.43946 0,-1.1733 -0.23938,-2.11749 -0.74414,-2.8125 l -0.002,-0.002 c -0.48342,-0.70521 -1.15296,-1.08789 -1.93555,-1.08789 -0.81822,0 -1.6368,0.46238 -2.45898,1.32031 a 0.23686357,0.23686357 0 0 0 0,0.002 c -0.52558,0.56062 -1.09045,1.36684 -1.67383,2.28516 l 2.43555,-8.29297 0,-0.004 c 0.13957,-0.45381 0.21875,-0.73328 0.21875,-0.95118 0,-0.17585 -0.0431,-0.34792 -0.16211,-0.47461 -0.11905,-0.12668 -0.29274,-0.17772 -0.46485,-0.17773 z m 11.03516,1.7168 c -0.2406,0 -0.47634,0.0795 -0.68359,0.22461 a 0.23686357,0.23686357 0 0 0 -0.008,0.006 c -0.17623,0.13707 -0.33873,0.30999 -0.48828,0.51562 -0.1531,0.21052 -0.27567,0.44728 -0.36914,0.70899 a 0.23686357,0.23686357 0 0 0 -0.006,0.0156 c -0.0751,0.26305 -0.11132,0.52805 -0.11133,0.79297 0,0.44576 0.0823,0.82282 0.27149,1.11719 a 0.23686357,0.23686357 0 0 0 0.004,0.006 c 0.19569,0.28265 0.51612,0.43945 0.8711,0.43945 0.48463,0 0.90786,-0.28316 1.21289,-0.75977 a 0.23686357,0.23686357 0 0 0 0.002,-0.002 c 0.3022,-0.49106 0.45117,-1.06817 0.45117,-1.71094 0,-0.36814 -0.10063,-0.69835 -0.31054,-0.95312 -0.19698,-0.25957 -0.50217,-0.40039 -0.83594,-0.40039 z m -1.14453,4.57617 c -0.46864,0 -0.93259,0.15753 -1.37891,0.45508 a 0.23686357,0.23686357 0 0 0 -0.004,0.002 c -0.4212,0.29301 -0.88223,0.72201 -1.39258,1.28516 -0.43827,0.49086 -0.76837,0.90375 -0.98828,1.25195 -0.10763,0.17041 -0.18962,0.31592 -0.24805,0.44336 -0.0584,0.12744 -0.0977,0.23198 -0.0977,0.35937 0,0.13943 0.0191,0.26935 0.0996,0.38672 0.0805,0.11738 0.23418,0.1875 0.36914,0.1875 0.25477,0 0.43353,-0.16477 0.625,-0.39453 0.17764,-0.21317 0.36204,-0.45214 0.55469,-0.71484 0.18393,-0.25083 0.36654,-0.47443 0.54883,-0.67383 0.18696,-0.18696 0.32867,-0.24414 0.37891,-0.24414 0.0514,0 0.0367,0.001 0.043,0.01 0.006,0.008 0.0313,0.0605 0.0312,0.16992 0,0.0276 -0.0443,0.27901 -0.14648,0.63672 l -1.63672,5.16796 a 0.23686357,0.23686357 0 0 0 0,0.004 c -0.19309,0.63191 -0.33504,1.21146 -0.42383,1.74414 -0.0881,0.52822 -0.13281,0.97305 -0.13281,1.33985 0,0.43049 0.084,0.78571 0.29297,1.04492 0.20896,0.2592 0.53659,0.38672 0.90625,0.38672 0.42066,0 0.86728,-0.14812 1.3418,-0.42188 0.47947,-0.27662 0.97706,-0.69754 1.50781,-1.26367 a 0.23686357,0.23686357 0 0 0 0.004,-0.004 c 0.43882,-0.49148 0.75738,-0.8993 0.96094,-1.23242 l 0,0.004 c 0.10745,-0.17013 0.18915,-0.31612 0.24805,-0.44336 0.0589,-0.12725 0.0996,-0.23072 0.0996,-0.35938 0,-0.12786 -0.0503,-0.26072 -0.13867,-0.35742 -0.0834,-0.10398 -0.2157,-0.18945 -0.35743,-0.18945 -0.25967,0 -0.40905,0.16821 -0.59765,0.39453 -0.17707,0.21249 -0.36354,0.45151 -0.55664,0.71484 -0.18357,0.23312 -0.37514,0.44937 -0.57422,0.64844 -0.1848,0.18481 -0.32617,0.24415 -0.4043,0.24414 -0.0428,0 -0.0288,-0.004 -0.0195,0.006 0.009,0.0102 -0.004,0.003 -0.004,-0.0566 0,-0.0759 0.0311,-0.3118 0.0977,-0.64649 l 0.002,-0.006 c 2e-4,-10e-4 -2e-4,-9.6e-4 0,-0.002 0.0842,-0.35242 0.21996,-0.81223 0.40821,-1.37695 a 0.23686357,0.23686357 0 0 0 0,-0.002 l 1.56054,-4.83594 a 0.23686357,0.23686357 0 0 0 0.002,-0.002 c 0.1404,-0.45635 0.24691,-0.86351 0.31836,-1.22071 0.0711,-0.35561 0.10742,-0.64297 0.10742,-0.87695 0,-0.47682 -0.10477,-0.87061 -0.35156,-1.15039 -0.2468,-0.27978 -0.61994,-0.41211 -1.05469,-0.41211 z m 7.74023,0.0508 c -0.53802,0 -1.06253,0.12154 -1.56054,0.36133 -0.49148,0.23663 -0.93001,0.5472 -1.3125,0.92969 -0.38156,0.38157 -0.68923,0.81205 -0.92579,1.28515 l 0,-0.004 c -0.24017,0.46187 -0.36328,0.93385 -0.36328,1.4082 0,0.76244 0.33032,1.55524 0.95703,2.37891 l 1.42969,1.89843 c 0.25472,0.33965 0.46586,0.66042 0.63281,0.96094 0.15161,0.2729 0.23047,0.59337 0.23047,0.97656 0,0.41124 -0.0994,0.71474 -0.28515,0.94336 a 0.23686357,0.23686357 0 0 0 -0.006,0.006 c -0.17581,0.23441 -0.34411,0.32227 -0.56446,0.32227 -0.24802,0 -0.49292,-0.0954 -0.7539,-0.3086 -0.25272,-0.23827 -0.53585,-0.59969 -0.83789,-1.08593 l -0.002,-0.002 c -0.24003,-0.39438 -0.43636,-0.72727 -0.58984,-1 l -0.002,-0.004 c -0.18175,-0.34062 -0.4831,-0.56446 -0.83203,-0.56446 -0.17108,0 -0.34041,0.0661 -0.4668,0.18164 -0.12639,0.11555 -0.21415,0.27089 -0.28125,0.45508 -0.13419,0.36838 -0.18945,0.86775 -0.18945,1.52344 0,0.62847 0.31237,1.17569 0.8789,1.57227 a 0.23686357,0.23686357 0 0 0 0.008,0.006 c 0.58225,0.37564 1.29928,0.55664 2.13085,0.55664 0.54823,0 1.08144,-0.11089 1.5918,-0.32813 l 0.006,-0.002 c 0.5238,-0.19939 0.9888,-0.47133 1.39063,-0.81836 0.40213,-0.3473 0.72574,-0.75386 0.96484,-1.21289 l 0.002,-0.002 c 0.2591,-0.48204 0.39063,-0.99875 0.39063,-1.53906 0,-0.58956 -0.13096,-1.12698 -0.39453,-1.59765 -0.24828,-0.44336 -0.54855,-0.90196 -0.90039,-1.37696 a 0.23686357,0.23686357 0 0 0 0,-0.002 l -1.22266,-1.61133 a 0.23686357,0.23686357 0 0 0 -0.002,-0.002 c -0.34014,-0.44217 -0.59194,-0.82003 -0.75586,-1.13086 l 0,-0.002 c -3.3e-4,-6.2e-4 -0.002,-0.001 -0.002,-0.002 -0.16184,-0.32495 -0.23437,-0.59122 -0.23437,-0.77539 0,-0.25911 0.0756,-0.43273 0.23633,-0.58008 a 0.23686357,0.23686357 0 0 0 0.008,-0.006 c 0.16593,-0.16593 0.35416,-0.24414 0.61328,-0.24414 0.23436,0 0.45122,0.085 0.67774,0.28125 a 0.23686357,0.23686357 0 0 0 0.006,0.006 c 0.24781,0.19826 0.47848,0.42169 0.69532,0.67188 a 0.23686357,0.23686357 0 0 0 0.006,0.008 c 0.24447,0.26194 0.48166,0.50705 0.70898,0.73438 a 0.23686357,0.23686357 0 0 0 0.008,0.006 c 0.2546,0.23501 0.53876,0.37305 0.83594,0.37305 0.33025,0 0.62345,-0.20002 0.77734,-0.50781 0.1539,-0.30779 0.2129,-0.71393 0.2129,-1.23633 0,-0.61353 -0.32846,-1.12256 -0.9043,-1.42969 -0.56097,-0.31646 -1.23535,-0.4707 -2.00977,-0.4707 z m -42.25586,0.8418 c -0.31544,0 -0.5532,0.0262 -0.74218,0.16797 -0.12819,0.0961 -0.25892,0.22671 -0.40039,0.39648 l -14.79493,16.59375 a 0.23686357,0.23686357 0 0 0 -0.002,0.004 c -0.17243,0.20116 -0.30687,0.40743 -0.39844,0.62109 -0.098,0.22871 -0.13867,0.50006 -0.13867,0.81445 0,0.31997 0.12446,0.61112 0.36523,0.78907 0.24078,0.17794 0.56207,0.24609 0.95118,0.24609 l 7.75976,0 c 0.17498,0 0.29112,0.0197 0.35156,0.0371 -0.004,0.0279 -0.004,0.0243 -0.0137,0.0723 -0.019,0.0958 -0.0482,0.23049 -0.0879,0.40235 l -0.83789,3.23437 c -0.18425,0.68381 -0.36972,1.23318 -0.54883,1.64258 -0.15895,0.36333 -0.40463,0.55149 -0.82226,0.6211 a 0.23686357,0.23686357 0 0 0 -0.01,0.002 c -0.36625,0.0785 -0.69166,0.13071 -0.97265,0.15625 l 0.0215,0 c -0.27399,0 -0.5098,0.012 -0.71289,0.041 -0.21343,0.0305 -0.39968,0.0933 -0.54883,0.20508 -0.18848,0.14136 -0.2539,0.37793 -0.2539,0.63086 0,0.25256 0.0662,0.48416 0.22851,0.64649 0.16234,0.16233 0.39393,0.22851 0.64649,0.22851 0.17964,0 0.5723,-0.0408 1.26757,-0.12109 l -0.002,0.002 c 0.70429,-0.0783 1.72622,-0.12109 3.05469,-0.12109 1.16781,0 2.05402,0.0416 2.64844,0.11914 0.61577,0.0803 0.97265,0.12109 1.15234,0.12109 0.30437,0 0.55382,-0.0403 0.75391,-0.16406 0.20008,-0.12373 0.32226,-0.35473 0.32226,-0.5918 0,-0.17292 -0.0458,-0.34157 -0.14844,-0.47461 -0.10228,-0.1326 -0.25077,-0.22104 -0.41796,-0.27148 l -0.002,0 c -0.24675,-0.0819 -0.52988,-0.14913 -0.84765,-0.20313 -0.27131,-0.0741 -0.52817,-0.17205 -0.77344,-0.29297 -0.15537,-0.10662 -0.25,-0.29969 -0.25,-0.67773 0,-0.24352 0.0362,-0.50201 0.11133,-0.77734 a 0.23686357,0.23686357 0 0 0 0.002,-0.006 l 0.96094,-3.88086 a 0.23686357,0.23686357 0 0 0 0.002,-0.01 c 0.0515,-0.25745 0.10605,-0.43475 0.13867,-0.5 a 0.23686357,0.23686357 0 0 0 0.01,-0.0176 c -0.003,0.008 -0.0134,0.003 0.0391,-0.0156 0.0524,-0.019 0.15556,-0.0371 0.29883,-0.0371 l 1.75976,0 c 0.11654,0 0.21357,-0.006 0.30274,-0.0254 0.0892,-0.0197 0.19909,-0.0445 0.26953,-0.18555 a 0.23686357,0.23686357 0 0 0 0.0137,-0.0312 l 0.11914,-0.35937 a 0.23686357,0.23686357 0 0 0 0.004,-0.01 l 0.16015,-0.56054 a 0.23686357,0.23686357 0 0 0 0.008,-0.0645 l 0,-0.0391 -0.0684,0.16797 c 0.0827,-0.0827 0.10937,-0.19337 0.10937,-0.28906 0,-0.15157 -0.0511,-0.31279 -0.16992,-0.41797 -0.1188,-0.10518 -0.27254,-0.13868 -0.42773,-0.13868 l -1.56055,0 c -0.17856,0 -0.29886,-0.0219 -0.35156,-0.041 0.004,-0.0181 0.008,-0.0331 0.0137,-0.0586 0.0197,-0.0846 0.05,-0.20778 0.0898,-0.36719 l -0.002,0.002 2.19141,-8.5293 0.008,-0.0293 c 0.0521,-0.13499 0.0879,-0.25566 0.0879,-0.37891 l 0,-0.20117 c 0,-0.13266 -0.0464,-0.2601 -0.11914,-0.36914 -0.0934,-0.14015 -0.27,-0.22656 -0.4375,-0.22656 l -0.19922,0 c -0.13234,0 -0.22475,0.0449 -0.3457,0.10547 l 0.0332,-0.0156 -2.27149,0.71875 c -0.23624,0.0675 -0.45711,0.21296 -0.66406,0.41992 a 0.23686357,0.23686357 0 0 0 -0.0117,0.0137 c -0.18425,0.21496 -0.30968,0.46777 -0.37109,0.74414 l 0,-0.006 -1.83984,7.35937 a 0.23686357,0.23686357 0 0 0 0,0.006 c -0.0521,0.23438 -0.10463,0.42714 -0.1543,0.57617 a 0.23686357,0.23686357 0 0 0 -0.008,0.0273 c -0.0197,0.0985 -0.0466,0.1594 -0.0723,0.20508 -0.007,0.003 -0.0471,0.0253 -0.13086,0.0449 l -0.44531,0 -7.08203,0 c 2.28599,-2.70097 4.38013,-5.06596 6.2539,-7.04101 1.99906,-2.10567 3.69166,-3.84986 5.07618,-5.23438 a 0.23686357,0.23686357 0 0 0 0.002,-0.002 c 1.38634,-1.413 2.45348,-2.49255 3.19922,-3.23828 l -0.004,0.002 c 0.39069,-0.37722 0.68651,-0.68821 0.89063,-0.9414 0.20412,-0.2532 0.34179,-0.41816 0.34179,-0.66797 0,-0.19043 -0.13635,-0.3757 -0.30468,-0.45508 -0.16833,-0.0794 -0.36603,-0.10156 -0.61133,-0.10156 l -0.64063,0 z m 11.66407,1.16015 c -2.43904,0 -4.52099,1.02994 -6.1836,3.04688 a 0.23686357,0.23686357 0 0 0 0,0.002 c -0.57002,0.70573 -0.98416,1.3621 -1.23633,1.97852 a 0.23686357,0.23686357 0 0 0 -0.004,0.01 c -0.1079,0.29673 -0.18875,0.53923 -0.24414,0.73438 -0.0554,0.19514 -0.0879,0.33302 -0.0879,0.46484 0,0.20052 0.0289,0.37797 0.13086,0.52539 0.10193,0.14742 0.28797,0.23047 0.46484,0.23047 0.18094,0 0.35873,-0.0782 0.48828,-0.20703 0.12955,-0.12887 0.22062,-0.29977 0.29492,-0.50781 a 0.23686357,0.23686357 0 0 0 0.002,-0.006 c 0.11939,-0.35816 0.41697,-0.8959 0.89062,-1.58008 1.25317,-1.82754 2.639,-2.69922 4.20313,-2.69922 0.91819,0 1.64703,0.38095 2.25195,1.1875 a 0.23686357,0.23686357 0 0 0 0.002,0.002 c 0.59916,0.77391 0.91016,1.85084 0.91016,3.25586 0,1.16859 -0.23278,2.23621 -0.69727,3.2168 a 0.23686357,0.23686357 0 0 0 -0.002,0.004 c -0.44346,0.99127 -1.07114,1.98853 -1.88672,2.98828 a 0.23686357,0.23686357 0 0 0 0,0.002 c -0.79132,0.97596 -1.76019,1.99404 -2.90039,3.05469 a 0.23686357,0.23686357 0 0 0 -0.002,0.002 c -1.1217,1.06829 -2.34915,2.26907 -3.6836,3.60352 -1.64318,1.64318 -2.87604,2.97024 -3.70507,3.98828 -0.41452,0.50902 -0.72879,0.94151 -0.94336,1.30273 -0.21457,0.36122 -0.33985,0.64461 -0.33985,0.91797 0,0.24996 0.0924,0.48727 0.2793,0.63477 0.18693,0.1475 0.43236,0.20117 0.7168,0.20117 0.16505,0 0.62955,-0.0267 1.45703,-0.0801 0.84324,-0.0527 2.1467,-0.0801 3.90429,-0.0801 2.07703,0 3.69954,0.0398 4.86329,0.11914 1.1744,0.0801 1.88479,0.1211 2.17578,0.1211 0.34639,0 0.61795,-0.0379 0.80859,-0.22852 0.19062,-0.19063 0.28128,-0.47667 0.41797,-0.9414 a 0.23686357,0.23686357 0 0 0 0.002,-0.002 l 1.1211,-4 -0.002,0.002 c 0.1352,-0.45969 0.20899,-0.73591 0.20899,-0.94727 0,-0.19605 -0.0456,-0.38135 -0.17188,-0.51953 -0.12624,-0.13818 -0.31405,-0.19727 -0.5039,-0.19727 -0.17595,0 -0.34346,0.0859 -0.4629,0.21485 -0.11943,0.12898 -0.20594,0.29656 -0.27929,0.50195 a 0.23686357,0.23686357 0 0 0 -0.004,0.01 c -0.0941,0.30578 -0.27236,0.59267 -0.54297,0.86328 a 0.23686357,0.23686357 0 0 0 -0.006,0.008 c -0.26274,0.28663 -0.55868,0.45457 -0.9082,0.52539 -0.001,3e-4 -0.002,0.002 -0.004,0.002 -0.38382,0.0504 -0.82005,0.0762 -1.3125,0.0762 l -7.11914,0 c 0.57783,-0.6379 1.16567,-1.26222 1.79688,-1.82813 0.79367,-0.68768 1.60052,-1.33729 2.41992,-1.94531 l 0.002,-0.002 2.55469,-1.83593 0.004,-0.002 c 0.88094,-0.61404 1.74904,-1.24 2.60351,-1.88086 a 0.23686357,0.23686357 0 0 0 0.004,-0.002 c 1.482,-1.15865 2.59462,-2.35104 3.33398,-3.58203 l 0.002,-0.004 c 0.76877,-1.23709 1.15429,-2.64384 1.15429,-4.20117 0,-1.88591 -0.56697,-3.46336 -1.70117,-4.68164 l -0.002,-0.002 c -1.11209,-1.22208 -2.64395,-1.83399 -4.5332,-1.83399 z m 14.26171,0.26563 c 0.22035,0 0.35846,0.0782 0.5,0.30469 a 0.23686357,0.23686357 0 0 0 0.01,0.0156 c 0.15227,0.20764 0.24219,0.5089 0.24219,0.92578 0,0.6211 -0.15236,1.48051 -0.46094,2.56055 a 0.23686357,0.23686357 0 0 0 0,0.002 c -0.28853,1.05228 -0.75557,2.15159 -1.40625,3.29883 a 0.23686357,0.23686357 0 0 0 -0.002,0 c -0.44016,0.77874 -0.89902,1.34358 -1.36524,1.69727 -0.47407,0.35964 -0.91021,0.52343 -1.31445,0.52343 -0.40067,0 -0.65046,-0.11251 -0.82813,-0.33789 -0.17766,-0.22538 -0.28711,-0.59969 -0.28711,-1.14062 0,-0.50696 0.15618,-1.19577 0.47852,-2.04492 0.33885,-0.84711 0.85993,-1.83207 1.56445,-2.94922 l 0.002,-0.002 c 0.63626,-0.97997 1.17731,-1.70642 1.61133,-2.17382 0.4402,-0.47281 0.85225,-0.67969 1.25585,-0.67969 z" />
  </g>
</svg>
