<?xml version="1.0" encoding="UTF-8" standalone="no"?>
<svg id="svg6228" xmlns:rdf="http://www.w3.org/1999/02/22-rdf-syntax-ns#" xmlns="http://www.w3.org/2000/svg" height="9.9643mm" width="17.547mm" version="1.1" xmlns:cc="http://creativecommons.org/ns#" xmlns:dc="http://purl.org/dc/elements/1.1/" viewBox="0 0 62.173818 35.30668">
 <g id="layer1" transform="translate(-203.2 -566.14)">
  <path id="path6819" d="m244.56 566.4c-0.1472 0-0.26413 0.0558-0.40234 0.13477-0.0963 0.0479-0.23463 0.11342-0.41016 0.19336-0.18383 0.0667-0.41952 0.14337-0.70898 0.22851a0.23686 0.23686 0 0 0 -0.004 0c-0.25338 0.0792-0.58599 0.13819-0.99023 0.17188a0.23686 0.23686 0 0 0 -0.004 0c-0.36247 0.0345-0.671 0.061-0.92773 0.0781h0.0156c-0.16907 0-0.34525 0.0618-0.45508 0.19531-0.10982 0.1335-0.14453 0.30278-0.14453 0.48243 0 0.11782 0.022 0.23512 0.0899 0.33789s0.18211 0.17638 0.29687 0.20507c0.14969 0.0375 0.30687 0.0656 0.47266 0.084 0.13034 0.0145 0.25069 0.0473 0.36328 0.10351a0.23686 0.23686 0 0 0 0.0215 0.0117c0.0203 0.008 0.0193 0.007 0.0293 0.0254 0.01 0.0189 0.0254 0.0645 0.0254 0.14258 0 0.0721-0.008 0.20769-0.0254 0.39453-0.0153 0.15201-0.0564 0.34682-0.12305 0.58008a0.23686 0.23686 0 0 0 0 0.004l-2.4434 9.334a0.23686 0.23686 0 0 0 -0.002 0.004c-0.13968 0.5587-0.25213 1.0752-0.33984 1.5488-0.0886 0.46123-0.13477 0.88305-0.13477 1.2656 0 1.1116 0.26175 2.007 0.81055 2.6504a0.23686 0.23686 0 0 0 0.002 0.002c0.5643 0.63954 1.3488 0.9629 2.2852 0.9629 0.81787 0 1.6413-0.20024 2.4648-0.59375l0.002-0.002c0.8454-0.39615 1.6425-0.99554 2.3867-1.793a0.23686 0.23686 0 0 0 0.002 -0.004c0.83293-0.92154 1.4825-1.9591 1.9434-3.1113a0.23686 0.23686 0 0 0 0 -0.002c0.46008-1.1679 0.6914-2.3149 0.6914-3.4395 0-1.1733-0.23938-2.1175-0.74414-2.8125l-0.002-0.002c-0.48342-0.70521-1.153-1.0879-1.9356-1.0879-0.81822 0-1.6368 0.46238-2.459 1.3203a0.23686 0.23686 0 0 0 0 0.002c-0.52558 0.56062-1.0904 1.3668-1.6738 2.2852l2.4356-8.293v-0.004c0.13957-0.45381 0.21875-0.73328 0.21875-0.95118 0-0.17585-0.0431-0.34792-0.16211-0.47461-0.11905-0.12668-0.29274-0.17772-0.46485-0.17773zm11.035 1.7168c-0.2406 0-0.47634 0.0795-0.68359 0.22461a0.23686 0.23686 0 0 0 -0.008 0.006c-0.17623 0.13707-0.33873 0.30999-0.48828 0.51562-0.1531 0.21052-0.27567 0.44728-0.36914 0.70899a0.23686 0.23686 0 0 0 -0.006 0.0156c-0.0751 0.26305-0.11132 0.52805-0.11133 0.79297 0 0.44576 0.0823 0.82282 0.27149 1.1172a0.23686 0.23686 0 0 0 0.004 0.006c0.19569 0.28265 0.51612 0.43945 0.8711 0.43945 0.48463 0 0.90786-0.28316 1.2129-0.75977a0.23686 0.23686 0 0 0 0.002 -0.002c0.3022-0.49106 0.45117-1.0682 0.45117-1.7109 0-0.36814-0.10063-0.69835-0.31054-0.95312-0.19698-0.25957-0.50217-0.40039-0.83594-0.40039zm-1.1445 4.5762c-0.46864 0-0.93259 0.15753-1.3789 0.45508a0.23686 0.23686 0 0 0 -0.004 0.002c-0.4212 0.29301-0.88223 0.72201-1.3926 1.2852-0.43827 0.49086-0.76837 0.90375-0.98828 1.252-0.10763 0.17041-0.18962 0.31592-0.24805 0.44336-0.0584 0.12744-0.0977 0.23198-0.0977 0.35937 0 0.13943 0.0191 0.26935 0.0996 0.38672 0.0805 0.11738 0.23418 0.1875 0.36914 0.1875 0.25477 0 0.43353-0.16477 0.625-0.39453 0.17764-0.21317 0.36204-0.45214 0.55469-0.71484 0.18393-0.25083 0.36654-0.47443 0.54883-0.67383 0.18696-0.18696 0.32867-0.24414 0.37891-0.24414 0.0514 0 0.0367 0.001 0.043 0.01 0.006 0.008 0.0313 0.0605 0.0312 0.16992 0 0.0276-0.0443 0.27901-0.14648 0.63672l-1.6367 5.168a0.23686 0.23686 0 0 0 0 0.004c-0.19309 0.63191-0.33504 1.2115-0.42383 1.7441-0.0881 0.52822-0.13281 0.97305-0.13281 1.3398 0 0.43049 0.084 0.78571 0.29297 1.0449 0.20896 0.2592 0.53659 0.38672 0.90625 0.38672 0.42066 0 0.86728-0.14812 1.3418-0.42188 0.47947-0.27662 0.97706-0.69754 1.5078-1.2637a0.23686 0.23686 0 0 0 0.004 -0.004c0.43882-0.49148 0.75738-0.8993 0.96094-1.2324v0.004c0.10745-0.17013 0.18915-0.31612 0.24805-0.44336 0.0589-0.12725 0.0996-0.23072 0.0996-0.35938 0-0.12786-0.0503-0.26072-0.13867-0.35742-0.0834-0.10398-0.2157-0.18945-0.35743-0.18945-0.25967 0-0.40905 0.16821-0.59765 0.39453-0.17707 0.21249-0.36354 0.45151-0.55664 0.71484-0.18357 0.23312-0.37514 0.44937-0.57422 0.64844-0.1848 0.18481-0.32617 0.24415-0.4043 0.24414-0.0428 0-0.0288-0.004-0.0195 0.006 0.009 0.0102-0.004 0.003-0.004-0.0566 0-0.0759 0.0311-0.3118 0.0977-0.64649l0.002-0.006c0.0002-0.001-0.0002-0.00096 0-0.002 0.0842-0.35242 0.21996-0.81223 0.40821-1.377a0.23686 0.23686 0 0 0 0 -0.002l1.5605-4.8359a0.23686 0.23686 0 0 0 0.002 -0.002c0.1404-0.45635 0.24691-0.86351 0.31836-1.2207 0.0711-0.35561 0.10742-0.64297 0.10742-0.87695 0-0.47682-0.10477-0.87061-0.35156-1.1504-0.2468-0.27978-0.61994-0.41211-1.0547-0.41211zm7.7402 0.0508c-0.53802 0-1.0625 0.12154-1.5605 0.36133-0.49148 0.23663-0.93001 0.5472-1.3125 0.92969-0.38156 0.38157-0.68923 0.81205-0.92579 1.2852v-0.004c-0.24017 0.46187-0.36328 0.93385-0.36328 1.4082 0 0.76244 0.33032 1.5552 0.95703 2.3789l1.4297 1.8984c0.25472 0.33965 0.46586 0.66042 0.63281 0.96094 0.15161 0.2729 0.23047 0.59337 0.23047 0.97656 0 0.41124-0.0994 0.71474-0.28515 0.94336a0.23686 0.23686 0 0 0 -0.006 0.006c-0.17581 0.23441-0.34411 0.32227-0.56446 0.32227-0.24802 0-0.49292-0.0954-0.7539-0.3086-0.25272-0.23827-0.53585-0.59969-0.83789-1.0859l-0.002-0.002c-0.24003-0.39438-0.43636-0.72727-0.58984-1l-0.002-0.004c-0.18175-0.34062-0.4831-0.56446-0.83203-0.56446-0.17108 0-0.34041 0.0661-0.4668 0.18164-0.12639 0.11555-0.21415 0.27089-0.28125 0.45508-0.13419 0.36838-0.18945 0.86775-0.18945 1.5234 0 0.62847 0.31237 1.1757 0.8789 1.5723a0.23686 0.23686 0 0 0 0.008 0.006c0.58225 0.37564 1.2993 0.55664 2.1308 0.55664 0.54823 0 1.0814-0.11089 1.5918-0.32813l0.006-0.002c0.5238-0.19939 0.9888-0.47133 1.3906-0.81836 0.40213-0.3473 0.72574-0.75386 0.96484-1.2129l0.002-0.002c0.2591-0.48204 0.39063-0.99875 0.39063-1.5391 0-0.58956-0.13096-1.127-0.39453-1.5976-0.24828-0.44336-0.54855-0.90196-0.90039-1.377a0.23686 0.23686 0 0 0 0 -0.002l-1.2227-1.6113a0.23686 0.23686 0 0 0 -0.002 -0.002c-0.34014-0.44217-0.59194-0.82003-0.75586-1.1309v-0.002c-0.00033-0.00062-0.002-0.001-0.002-0.002-0.16184-0.32495-0.23437-0.59122-0.23437-0.77539 0-0.25911 0.0756-0.43273 0.23633-0.58008a0.23686 0.23686 0 0 0 0.008 -0.006c0.16593-0.16593 0.35416-0.24414 0.61328-0.24414 0.23436 0 0.45122 0.085 0.67774 0.28125a0.23686 0.23686 0 0 0 0.006 0.006c0.24781 0.19826 0.47848 0.42169 0.69532 0.67188a0.23686 0.23686 0 0 0 0.006 0.008c0.24447 0.26194 0.48166 0.50705 0.70898 0.73438a0.23686 0.23686 0 0 0 0.008 0.006c0.2546 0.23501 0.53876 0.37305 0.83594 0.37305 0.33025 0 0.62345-0.20002 0.77734-0.50781 0.1539-0.30779 0.2129-0.71393 0.2129-1.2363 0-0.61353-0.32846-1.1226-0.9043-1.4297-0.56097-0.31646-1.2354-0.4707-2.0098-0.4707zm-42.256 0.8418c-0.31544 0-0.5532 0.0262-0.74218 0.16797-0.12819 0.0961-0.25892 0.22671-0.40039 0.39648l-14.795 16.594a0.23686 0.23686 0 0 0 -0.002 0.004c-0.17243 0.20116-0.30687 0.40743-0.39844 0.62109-0.098 0.22871-0.13867 0.50006-0.13867 0.81445 0 0.31997 0.12446 0.61112 0.36523 0.78907 0.24078 0.17794 0.56207 0.24609 0.95118 0.24609h7.7598c0.17498 0 0.29112 0.0197 0.35156 0.0371-0.004 0.0279-0.004 0.0243-0.0137 0.0723-0.019 0.0958-0.0482 0.23049-0.0879 0.40235l-0.83789 3.2344c-0.18425 0.68381-0.36972 1.2332-0.54883 1.6426-0.15895 0.36333-0.40463 0.55149-0.82226 0.6211a0.23686 0.23686 0 0 0 -0.01 0.002c-0.36625 0.0785-0.69166 0.13071-0.97265 0.15625h0.0215c-0.27399 0-0.5098 0.012-0.71289 0.041-0.21343 0.0305-0.39968 0.0933-0.54883 0.20508-0.18848 0.14136-0.2539 0.37793-0.2539 0.63086 0 0.25256 0.0662 0.48416 0.22851 0.64649 0.16234 0.16233 0.39393 0.22851 0.64649 0.22851 0.17964 0 0.5723-0.0408 1.2676-0.12109l-0.002 0.002c0.70429-0.0783 1.7262-0.12109 3.0547-0.12109 1.1678 0 2.054 0.0416 2.6484 0.11914 0.61577 0.0803 0.97265 0.12109 1.1523 0.12109 0.30437 0 0.55382-0.0403 0.75391-0.16406 0.20008-0.12373 0.32226-0.35473 0.32226-0.5918 0-0.17292-0.0458-0.34157-0.14844-0.47461-0.10228-0.1326-0.25077-0.22104-0.41796-0.27148h-0.002c-0.24675-0.0819-0.52988-0.14913-0.84765-0.20313-0.27131-0.0741-0.52817-0.17205-0.77344-0.29297-0.15537-0.10662-0.25-0.29969-0.25-0.67773 0-0.24352 0.0362-0.50201 0.11133-0.77734a0.23686 0.23686 0 0 0 0.002 -0.006l0.96094-3.8809a0.23686 0.23686 0 0 0 0.002 -0.01c0.0515-0.25745 0.10605-0.43475 0.13867-0.5a0.23686 0.23686 0 0 0 0.01 -0.0176c-0.003 0.008-0.0134 0.003 0.0391-0.0156 0.0524-0.019 0.15556-0.0371 0.29883-0.0371h1.7598c0.11654 0 0.21357-0.006 0.30274-0.0254 0.0892-0.0197 0.19909-0.0445 0.26953-0.18555a0.23686 0.23686 0 0 0 0.0137 -0.0312l0.11914-0.35937a0.23686 0.23686 0 0 0 0.004 -0.01l0.16015-0.56054a0.23686 0.23686 0 0 0 0.008 -0.0645v-0.0391l-0.0684 0.16797c0.0827-0.0827 0.10937-0.19337 0.10937-0.28906 0-0.15157-0.0511-0.31279-0.16992-0.41797-0.1188-0.10518-0.27254-0.13868-0.42773-0.13868h-1.5606c-0.17856 0-0.29886-0.0219-0.35156-0.041 0.004-0.0181 0.008-0.0331 0.0137-0.0586 0.0197-0.0846 0.05-0.20778 0.0898-0.36719l-0.002 0.002 2.1914-8.5293 0.008-0.0293c0.0521-0.13499 0.0879-0.25566 0.0879-0.37891v-0.20117c0-0.13266-0.0464-0.2601-0.11914-0.36914-0.0934-0.14015-0.27-0.22656-0.4375-0.22656h-0.19922c-0.13234 0-0.22475 0.0449-0.3457 0.10547l0.0332-0.0156-2.2715 0.71875c-0.23624 0.0675-0.45711 0.21296-0.66406 0.41992a0.23686 0.23686 0 0 0 -0.0117 0.0137c-0.18425 0.21496-0.30968 0.46777-0.37109 0.74414v-0.006l-1.8398 7.3594a0.23686 0.23686 0 0 0 0 0.006c-0.0521 0.23438-0.10463 0.42714-0.1543 0.57617a0.23686 0.23686 0 0 0 -0.008 0.0273c-0.0197 0.0985-0.0466 0.1594-0.0723 0.20508-0.007 0.003-0.0471 0.0253-0.13086 0.0449h-0.44531-7.082c2.286-2.701 4.3801-5.066 6.2539-7.041 1.9991-2.1057 3.6917-3.8499 5.0762-5.2344a0.23686 0.23686 0 0 0 0.002 -0.002c1.3863-1.413 2.4535-2.4926 3.1992-3.2383l-0.004 0.002c0.39069-0.37722 0.68651-0.68821 0.89063-0.9414 0.20412-0.2532 0.34179-0.41816 0.34179-0.66797 0-0.19043-0.13635-0.3757-0.30468-0.45508-0.16833-0.0794-0.36603-0.10156-0.61133-0.10156h-0.64063zm11.664 1.1602c-2.439 0-4.521 1.0299-6.1836 3.0469a0.23686 0.23686 0 0 0 0 0.002c-0.57002 0.70573-0.98416 1.3621-1.2363 1.9785a0.23686 0.23686 0 0 0 -0.004 0.01c-0.1079 0.29673-0.18875 0.53923-0.24414 0.73438-0.0554 0.19514-0.0879 0.33302-0.0879 0.46484 0 0.20052 0.0289 0.37797 0.13086 0.52539 0.10193 0.14742 0.28797 0.23047 0.46484 0.23047 0.18094 0 0.35873-0.0782 0.48828-0.20703 0.12955-0.12887 0.22062-0.29977 0.29492-0.50781a0.23686 0.23686 0 0 0 0.002 -0.006c0.11939-0.35816 0.41697-0.8959 0.89062-1.5801 1.2532-1.8275 2.639-2.6992 4.2031-2.6992 0.91819 0 1.647 0.38095 2.252 1.1875a0.23686 0.23686 0 0 0 0.002 0.002c0.59916 0.77391 0.91016 1.8508 0.91016 3.2559 0 1.1686-0.23278 2.2362-0.69727 3.2168a0.23686 0.23686 0 0 0 -0.002 0.004c-0.44346 0.99127-1.0711 1.9885-1.8867 2.9883a0.23686 0.23686 0 0 0 0 0.002c-0.79132 0.97596-1.7602 1.994-2.9004 3.0547a0.23686 0.23686 0 0 0 -0.002 0.002c-1.1217 1.0683-2.3492 2.2691-3.6836 3.6035-1.6432 1.6432-2.876 2.9702-3.7051 3.9883-0.41452 0.50902-0.72879 0.94151-0.94336 1.3027-0.21457 0.36122-0.33985 0.64461-0.33985 0.91797 0 0.24996 0.0924 0.48727 0.2793 0.63477 0.18693 0.1475 0.43236 0.20117 0.7168 0.20117 0.16505 0 0.62955-0.0267 1.457-0.0801 0.84324-0.0527 2.1467-0.0801 3.9043-0.0801 2.077 0 3.6995 0.0398 4.8633 0.11914 1.1744 0.0801 1.8848 0.1211 2.1758 0.1211 0.34639 0 0.61795-0.0379 0.80859-0.22852 0.19062-0.19063 0.28128-0.47667 0.41797-0.9414a0.23686 0.23686 0 0 0 0.002 -0.002l1.1211-4-0.002 0.002c0.1352-0.45969 0.20899-0.73591 0.20899-0.94727 0-0.19605-0.0456-0.38135-0.17188-0.51953-0.12624-0.13818-0.31405-0.19727-0.5039-0.19727-0.17595 0-0.34346 0.0859-0.4629 0.21485-0.11943 0.12898-0.20594 0.29656-0.27929 0.50195a0.23686 0.23686 0 0 0 -0.004 0.01c-0.0941 0.30578-0.27236 0.59267-0.54297 0.86328a0.23686 0.23686 0 0 0 -0.006 0.008c-0.26274 0.28663-0.55868 0.45457-0.9082 0.52539-0.001 0.0003-0.002 0.002-0.004 0.002-0.38382 0.0504-0.82005 0.0762-1.3125 0.0762h-7.1191c0.57783-0.6379 1.1657-1.2622 1.7969-1.8281 0.79367-0.68768 1.6005-1.3373 2.4199-1.9453l0.002-0.002 2.5547-1.8359 0.004-0.002c0.88094-0.61404 1.749-1.24 2.6035-1.8809a0.23686 0.23686 0 0 0 0.004 -0.002c1.482-1.1586 2.5946-2.351 3.334-3.582l0.002-0.004c0.76877-1.2371 1.1543-2.6438 1.1543-4.2012 0-1.8859-0.56697-3.4634-1.7012-4.6816l-0.002-0.002c-1.1121-1.2221-2.644-1.834-4.5332-1.834zm14.262 0.26563c0.22035 0 0.35846 0.0782 0.5 0.30469a0.23686 0.23686 0 0 0 0.01 0.0156c0.15227 0.20764 0.24219 0.5089 0.24219 0.92578 0 0.6211-0.15236 1.4805-0.46094 2.5606a0.23686 0.23686 0 0 0 0 0.002c-0.28853 1.0523-0.75557 2.1516-1.4062 3.2988a0.23686 0.23686 0 0 0 -0.002 0c-0.44016 0.77874-0.89902 1.3436-1.3652 1.6973-0.47407 0.35964-0.91021 0.52343-1.3144 0.52343-0.40067 0-0.65046-0.11251-0.82813-0.33789-0.17766-0.22538-0.28711-0.59969-0.28711-1.1406 0-0.50696 0.15618-1.1958 0.47852-2.0449 0.33885-0.84711 0.85993-1.8321 1.5644-2.9492l0.002-0.002c0.63626-0.97997 1.1773-1.7064 1.6113-2.1738 0.4402-0.47281 0.85225-0.67969 1.2558-0.67969z" fill="#d35f5f"/>
 </g>
</svg>
